<svg width="29" height="34" viewBox="0 0 29 34" fill="none" xmlns="http://www.w3.org/2000/svg">
<path d="M21.7155 7.26172H6.78906V11.2865H21.7155V7.26172Z" fill="black"/>
<path d="M17.1073 21.2983L15.4051 22.9983L13.1029 25.3026L11.3984 23.6004L13.7051 21.2983L15.4051 19.5938L17.1073 21.2983Z" fill="black"/>
<path d="M19.4097 23.6004L17.7075 25.3026L13.7031 21.2983L15.4031 19.5938L17.1054 21.2983L19.4097 23.6004Z" fill="black"/>
<path d="M21.719 21.2999L20.0144 22.9999L19.4123 23.602L17.7101 25.3043L16.0078 23.602L17.7101 21.902L18.3122 21.2999L20.0144 19.5977L21.719 21.2999Z" fill="black"/>
<path d="M21.7193 21.2999L20.0148 22.9999L18.3125 21.2999L20.0148 19.5977L21.7193 21.2999Z" fill="black"/>
<path d="M12.498 21.2983L10.7957 22.9983L8.49132 25.3026L6.78906 23.6004L9.09345 21.2983L10.7957 19.5938L12.498 21.2983Z" fill="black"/>
<path d="M14.8004 23.6004L13.0981 25.3026L9.09375 21.2983L10.7937 19.5938L12.496 21.2983L14.8004 23.6004Z" fill="black"/>
<path d="M17.1073 21.2999L15.4051 22.9999L14.8029 23.602L13.1007 25.3043L11.3984 23.602L13.1007 21.902L13.7028 21.2999L15.4051 19.5977L17.1073 21.2999Z" fill="black"/>
<path d="M17.1076 21.2999L15.4054 22.9999L13.7031 21.2999L15.4054 19.5977L17.1076 21.2999Z" fill="black"/>
<path d="M4.05191 0V32.2681L3.95004 32.5488H0V0H4.05191Z" fill="black"/>
<path d="M24.7305 0V4.02474V28.524H28.7824V4.02474V0H24.7305Z" fill="black"/>
<path d="M28.2041 0H0.574219V4.02474H28.2041V0Z" fill="black"/>
<path d="M20.6738 29.0547H0V33.0794H20.6738V29.0547Z" fill="black"/>
</svg>
