<svg width="20" height="20" viewBox="0 0 20 20" fill="none" xmlns="http://www.w3.org/2000/svg">
<path d="M6.66894 4.65339C7.44136 4.63078 8.0819 4.89454 8.72621 5.13568C9.01257 5.24495 9.29894 5.35422 9.5966 5.43335C9.83021 5.4974 10.0563 5.46726 10.2786 5.38437C10.6629 5.24495 11.0435 5.10554 11.4278 4.96236C12.0985 4.71368 12.788 4.54412 13.5039 4.58934C14.8415 4.67223 15.9757 5.1922 16.8385 6.24345C16.9892 6.42431 16.9779 6.44315 16.7895 6.57503C15.3916 7.55845 14.7812 8.91113 14.9696 10.6029C15.1354 12.1063 15.9305 13.1839 17.2718 13.8659C17.4452 13.9526 17.4791 14.0317 17.415 14.2088C16.9666 15.4334 16.3336 16.5524 15.5047 17.5585C15.256 17.8599 15.0035 18.1538 14.7097 18.4063C14.0503 18.9677 13.3042 19.092 12.4715 18.8735C12.0457 18.7604 11.6501 18.5683 11.2319 18.4289C10.4255 18.1651 9.63051 18.2141 8.83172 18.4703C8.41348 18.606 8.01785 18.7906 7.59207 18.9074C6.76313 19.1372 6.0623 18.9338 5.44437 18.3535C4.39689 17.3739 3.6207 16.202 3.04044 14.9021C2.61467 13.9601 2.30947 12.9654 2.14368 11.933C1.93644 10.6557 1.92137 9.38588 2.31323 8.13871C2.62974 7.1176 3.17608 6.24345 4.02386 5.58407C4.81512 4.9699 5.71566 4.63832 6.66894 4.65339Z" fill="black"/>
<path d="M9.70011 3.97563C9.73779 2.7812 10.2578 1.82415 11.1432 1.04796C11.7838 0.486546 12.5336 0.162506 13.3625 0.00802177C13.4906 -0.0145857 13.5434 0.00425386 13.5471 0.147434C13.5585 1.56417 13.0347 2.73222 11.9533 3.65159C11.3693 4.14895 10.7024 4.39387 9.93749 4.4014C9.74909 4.40517 9.66997 4.35242 9.69634 4.16026C9.70765 4.10374 9.70011 4.03968 9.70011 3.97563Z" fill="black"/>
</svg>
